<svg id="Layer_1" data-name="Layer 1" xmlns="http://www.w3.org/2000/svg" viewBox="0 0 250 250"><defs><style>.cls-1{fill:#fbc334;}.cls-2{fill:#363636;}</style></defs><rect class="cls-1" width="250" height="250"/><path class="cls-2" d="M232.5,129c-7.2-6.63-14.51-6.38-19.64-6-4.31.32-11.6,4.09-15.57,6.19,5.9-7.11,11.25-13.58,12.21-14.68,2.15-2.5,1.81-4.08.68-7.6-.74-2.3-3.58-5.19-5.45-6.9a2.89,2.89,0,0,0-3.53-.31c-5.28,3.38-20.47,13-26,15.71-4.14,2-18.29,7.73-28.17,11.6,7.91-9,17.4-20.36,20.84-24.35,6-7,15.7-19.67,16.78-28.17a17.57,17.57,0,0,0-2-10.06,11,11,0,0,0-9.5-5.17c-4,0-24.07,12.66-29.72,16.42-3.72,2.48-21.89,16.23-34.81,26.31l4.16-4.88c6-6.94,15.7-19.66,16.78-28.17a17.55,17.55,0,0,0-2-10,11,11,0,0,0-9.5-5.17c-4,0-24.07,12.66-29.72,16.42-2.91,1.94-14.7,10.8-25.88,19.4C68,82.82,88.43,58,90.39,55.77c2.15-2.49,1.81-4.08.68-7.59-.75-2.31-3.58-5.19-5.45-6.91a2.91,2.91,0,0,0-3.53-.3C76.81,44.34,61.62,54,56,56.68c-6.12,3-24.95,9-28.62,10.12a.87.87,0,0,0-.61.91c.13,1.32,1,4,5.77,4.38,5.62.4,27.86-10,32.88-12.43a.24.24,0,0,1,.28.37L10,125.39a2.81,2.81,0,0,0-.6,2.53c.72,2.87,4.25,7.46,6.24,9.27,2.49,2.27,4,1,5.18-.14,1.8-1.79,4.48-4.69,7.61-8.18C41,116.27,64,95.43,74.52,87.81,88.05,78.05,114.93,61.1,118,60.58c0,0,2-.17,1,1.89S102.43,84.9,97.46,89.86,67.6,122.08,66.8,123.8c-.46,1-1.2,5.48,1.19,8.56s4.8,7.19,7.19,6.85a3,3,0,0,0,1-.7l-.06.08.1-.11a88.42,88.42,0,0,0,6.2-6.37c12.17-11.41,36.25-30.87,47.19-38.76,13.53-9.76,40.4-26.71,43.49-27.22,0,0,2.05-.17,1,1.88s-16.6,22.43-21.57,27.39-25,26.7-25.85,28.42c-.46,1-1.2,5.48,1.2,8.56a50.35,50.35,0,0,0,4.53,5.68,3.1,3.1,0,0,0,.91.7,2.59,2.59,0,0,0,1.75.47c5.62.4,44.42-18.41,49.44-20.81a.24.24,0,0,1,.28.38L103.61,214a2.89,2.89,0,0,0-.6,2.54,26.52,26.52,0,0,0,5.69,9.74c2.49,2.26,5.73-.61,5.73-.61s63.2-72.86,65.81-75.92c5.13-3.6,20.12-17.27,29.36-19.77,4.11-1.12,13.78-2.47,17.73,2,3.81,4.32,3.37,10.4-2.15,17.46s-13.31,15.92-28.5,21.32-19.11,5.46-29.92,4.11c-2.73-.35-7.71,2.78-7.71,4,0,.68,8.06,6.43,12.07,8.21,6.9,3.07,16.95,3,23,1.67s20.93-6.29,30.94-15.53,14.16-16.62,15-20.8A24,24,0,0,0,232.5,129Z"/></svg>