<svg id="Layer_1" data-name="Layer 1" xmlns="http://www.w3.org/2000/svg" viewBox="0 0 250 201.76"><defs><style>.cls-1{fill:#363636;}</style></defs><path class="cls-1" d="M241.19,95.68c-7.78-7.17-15.68-6.9-21.23-6.48-4.65.35-12.53,4.42-16.82,6.69C209.51,88.2,215.3,81.21,216.33,80c2.33-2.7,2-4.41.74-8.21-.81-2.49-3.87-5.61-5.89-7.47a3.15,3.15,0,0,0-3.82-.32c-5.7,3.65-22.12,14.06-28.15,17-4.47,2.16-19.76,8.35-30.44,12.53,8.54-9.74,18.8-22,22.52-26.32,6.48-7.51,17-21.26,18.14-30.45a19.1,19.1,0,0,0-2.2-10.87A11.9,11.9,0,0,0,177,20.31c-4.32,0-26,13.67-32.13,17.74-4,2.68-23.66,17.54-37.62,28.44,2-2.29,3.51-4.13,4.5-5.27,6.47-7.51,17-21.26,18.13-30.45a18.94,18.94,0,0,0-2.2-10.87,11.89,11.89,0,0,0-10.27-5.58c-4.31,0-26,13.67-32.13,17.74-3.14,2.1-15.88,11.68-28,21C63.36,45.74,85.47,19,87.59,16.5c2.33-2.7,2-4.41.73-8.21-.8-2.49-3.86-5.61-5.88-7.46A3.13,3.13,0,0,0,78.62.5c-5.71,3.65-22.12,14.06-28.15,17-6.63,3.2-27,9.68-30.94,10.93a1,1,0,0,0-.66,1c.14,1.43,1.07,4.37,6.24,4.74,6.07.43,30.11-10.85,35.54-13.44a.26.26,0,0,1,.3.4L.74,91.74a3.1,3.1,0,0,0-.65,2.74c.78,3.1,4.6,8.07,6.75,10,2.7,2.45,4.31,1.12,5.6-.15,2-1.94,4.85-5.07,8.22-8.84C34.23,81.89,59,59.36,70.44,51.12c14.62-10.54,43.67-28.86,47-29.42,0,0,2.22-.18,1.11,2S100.6,48,95.24,53.34,63,88.17,62.09,90c-.5,1.06-1.3,5.92,1.29,9.25s5.19,7.78,7.78,7.41a3.5,3.5,0,0,0,1.12-.76l-.06.09.1-.12c1.38-1.19,3.75-3.65,6.7-6.89,13.15-12.33,39.18-33.36,51-41.9,14.62-10.54,43.67-28.86,47-29.42,0,0,2.22-.18,1.11,2S160.19,54,154.82,59.33s-27.07,28.86-27.94,30.72c-.5,1.06-1.29,5.92,1.3,9.26,1.63,2.1,3.26,4.63,4.9,6.13a3,3,0,0,0,1,.76,2.78,2.78,0,0,0,1.89.51c6.07.43,48-19.91,53.44-22.5a.26.26,0,0,1,.3.41L101.88,187.56a3.09,3.09,0,0,0-.65,2.74c.79,3.1,4,8.57,6.15,10.52,2.7,2.45,6.2-.65,6.2-.65s68.31-78.75,71.12-82.06c5.56-3.89,21.76-18.67,31.74-21.37,4.45-1.2,14.89-2.67,19.16,2.17,4.12,4.68,3.65,11.24-2.32,18.88s-14.38,17.21-30.81,23-20.65,5.9-32.33,4.44c-3-.37-8.33,3-8.33,4.3,0,.74,8.71,7,13,8.88,7.45,3.31,18.32,3.19,24.85,1.81s22.62-6.8,33.44-16.8,15.31-18,16.24-22.48A25.91,25.91,0,0,0,241.19,95.68Z"/></svg>